#N canvas 0 22 960 828 10;
#X obj 495 -69 adc~ 1;
#X obj 495 -24 dac~ 27 28 29 30;
#X obj 659 421 dac~;
#X obj 497 202 throw~ \$0-mix;
#X obj 658 290 catch~ \$0-mix;
#X obj 604 202 throw~ \$0-mix;
#X obj 497 167 grain \$0-tape;
#X obj 604 167 grain \$0-tape;
#X obj 22 -156 hsl 128 15 0 1 0 0 empty empty position 140 4 0 10 -262144
-1 -1 0 1;
#X floatatom 22 -139 8 0 0 0 - - -, f 8;
#X obj 22 -79 hsl 128 15 0 1 0 0 empty empty spread 140 4 0 10 -262144
-1 -1 1100 1;
#X floatatom 22 -62 8 0 0 0 - - -, f 8;
#X obj 22 -233 hsl 128 15 0 1 0 0 empty empty amplitude 140 4 0 10
-262144 -1 -1 12700 1;
#X floatatom 22 -216 8 0 0 0 - - -, f 8;
#X obj 483 -230 f 5000;
#X obj 483 -249 loadbang;
#X obj 228 -156 hsl 128 15 0 1 0 0 empty empty speed 140 4 0 10 -262144
-1 -1 2150 1;
#X floatatom 228 -139 8 0 0 0 - - -, f 8;
#X obj 228 -79 hsl 128 15 0 1 0 0 empty empty fade 140 4 0 10 -262144
-1 -1 5450 1;
#X floatatom 228 -62 8 0 0 0 - - -, f 8;
#X obj 228 -233 hsl 128 15 0 1 0 0 empty empty length 140 4 0 10 -262144
-1 -1 600 1;
#X floatatom 228 -216 8 0 0 0 - - -, f 8;
#X obj 60 54 s \$0-pos-ms;
#X obj 60 35 *;
#X obj 483 -211 s \$0-max-pos-ms;
#X obj 483 -166 f 5000;
#X obj 483 -147 s \$0-max-spr-ms;
#X obj 521 -46 delwrite~ \$0-tape 10000;
#X obj 100 12 r \$0-max-pos-ms;
#X text 22 -276 controls;
#X obj 60 105 *;
#X obj 100 82 r \$0-max-spr-ms;
#X obj 60 124 s \$0-spr-ms;
#X text 483 -273 define ranges for control values;
#X obj 483 -185 loadbang;
#X obj 595 -249 loadbang;
#X obj 595 -230 f 1;
#X obj 595 -211 s \$0-min-len-ms;
#X obj 691 -249 loadbang;
#X obj 691 -211 s \$0-max-len-ms;
#X obj 291 35 expr $f1*($f3-$f2)+$f2;
#X obj 289 12 r \$0-min-len-ms;
#X obj 385 12 r \$0-max-len-ms;
#X obj 291 54 s \$0-len-ms;
#X obj 289 105 expr $f1*($f3-$f2)+$f2;
#X obj 595 -185 loadbang;
#X obj 691 -185 loadbang;
#X obj 595 -147 s \$0-min-spd-ms;
#X obj 691 -147 s \$0-max-spd-ms;
#X obj 287 82 r \$0-min-spd-ms;
#X obj 383 82 r \$0-max-spd-ms;
#X floatatom 22 367 8 0 0 0 - - -, f 8;
#X floatatom 100 367 8 0 0 0 - - -, f 8;
#X floatatom 172 367 8 0 0 0 - - -, f 8;
#X floatatom 244 367 8 0 0 0 - - -, f 8;
#X obj 100 348 r \$0-pos-ms;
#X obj 172 348 r \$0-spr-ms;
#X floatatom 316 367 8 0 0 0 - - -, f 8;
#X obj 244 348 r \$0-len-ms;
#X obj 22 -198 s \$0-amp-ctl;
#X obj 22 -121 s \$0-pos-ctl;
#X obj 22 -44 s \$0-spr-ctl;
#X obj 228 -198 s \$0-len-ctl;
#X obj 228 -121 s \$0-spd-ctl;
#X obj 228 -44 s \$0-fade-ctl;
#X obj 22 12 r \$0-pos-ctl;
#X obj 22 82 r \$0-spr-ctl;
#X obj 211 12 r \$0-len-ctl;
#X obj 209 82 r \$0-spd-ctl;
#X obj 289 124 s \$0-spd;
#X obj 595 -166 f 0.1;
#X obj 691 -166 f 2;
#X obj 316 348 r \$0-spd;
#X floatatom 370 367 8 0 0 0 - - -, f 8;
#X obj 22 348 r \$0-amp-ctl;
#X text 22 325 meters;
#X obj 370 348 r \$0-fade-ms;
#X text 460 230 grain msg: pos-ms spr-ms len-ms speed fade amp;
#X text 22 -13 compute scaled control values;
#X text 495 -110 delay line length should be max-pos-ms + max-spr-ms
, f 28;
#X obj 497 56 metro;
#X obj 497 79 f 0;
#X obj 541 79 expr ($f1+1)%2;
#X obj 504 102 r \$0-pos-ms;
#X obj 576 102 r \$0-spr-ms;
#X obj 648 102 r \$0-len-ms;
#X obj 720 102 r \$0-spd;
#X obj 774 102 r \$0-fade;
#X obj 228 -252 loadbang;
#X text 22 206 compute auxiliary values;
#X obj 37 294 s \$0-dur-ms;
#X obj 22 229 r \$0-len-ms;
#X obj 94 229 r \$0-spd;
#X obj 37 275 /, f 1;
#X obj 109 294 s \$0-fade-ms;
#X obj 208 229 r \$0-dur-ms;
#X obj 109 275 expr $f2*0.5*$f1;
#X obj 22 -252 loadbang;
#X obj 22 -175 loadbang;
#X obj 228 -175 loadbang;
#X obj 22 -98 loadbang;
#X obj 228 -98 loadbang;
#X obj 448 348 r \$0-dur-ms;
#X floatatom 448 367 8 0 0 0 - - -, f 8;
#X obj 42 252 bang;
#X obj 145 252 bang;
#X obj 280 229 r \$0-fade-ms;
#X obj 211 275 -;
#X obj 239 252 bang;
#X obj 211 294 s \$0-rep-dur-ms;
#X obj 520 348 r \$0-rep-dur-ms;
#X floatatom 520 367 8 0 0 0 - - -, f 8;
#X obj 524 37 r \$0-rep-dur-ms;
#X obj 834 102 r \$0-amp;
#X text 497 13 generate metronome to trigger grains;
#X obj 497 144 route 0 1;
#X text 635 79 cycle between the two grains;
#X obj 22 153 r \$0-amp-ctl;
#X obj 22 172 s \$0-amp;
#X obj 100 153 r \$0-fade-ctl;
#X obj 100 172 s \$0-fade;
#X obj 148 229 r \$0-fade;
#X obj 691 -230 f 1000;
#X obj 788 -55 hsl 128 15 0 1 0 0 empty empty empty -2 -8 0 10 -262144
-1 -1 9350 1;
#X obj 753 -55 *~;
#X obj 668 -26 throw~ \$0-mix;
#X obj 560 317 s~ \$0-feedback;
#X obj 698 -95 r~ \$0-feedback;
#X obj 497 125 pack f f f f f f f;
#X obj -41 -317 ctlin 20;
#X obj -41 -298 / 127;
#X obj -42 -199 / 127;
#X obj -41 -91 / 127;
#X obj -42 -218 ctlin 21;
#X obj -41 -110 ctlin 22;
#X obj 418 -286 / 127;
#X obj 417 -187 / 127;
#X obj 418 -79 / 127;
#X obj 418 -305 ctlin 23;
#X obj 417 -206 ctlin 24;
#X obj 418 -98 ctlin 25;
#X obj 137 -329 loadbang;
#X msg 137 -310 hw 0 0 0;
#X obj 137 -291 s bela_setMidi;
#X obj 462 33 loadbang;
#X obj 788 -76 / 127;
#X obj 788 -95 ctlin 26;
#X obj 657 386 *~ 0.8;
#X obj 716 -76 lop~ 10000;
#X connect 0 0 1 0;
#X connect 0 0 27 0;
#X connect 0 0 125 0;
#X connect 4 0 126 0;
#X connect 4 0 147 0;
#X connect 6 0 3 0;
#X connect 7 0 5 0;
#X connect 8 0 9 0;
#X connect 9 0 60 0;
#X connect 10 0 11 0;
#X connect 11 0 61 0;
#X connect 12 0 13 0;
#X connect 13 0 59 0;
#X connect 14 0 24 0;
#X connect 15 0 14 0;
#X connect 16 0 17 0;
#X connect 17 0 63 0;
#X connect 18 0 19 0;
#X connect 19 0 64 0;
#X connect 20 0 21 0;
#X connect 21 0 62 0;
#X connect 23 0 22 0;
#X connect 25 0 26 0;
#X connect 28 0 23 1;
#X connect 30 0 32 0;
#X connect 31 0 30 1;
#X connect 34 0 25 0;
#X connect 35 0 36 0;
#X connect 36 0 37 0;
#X connect 38 0 122 0;
#X connect 40 0 43 0;
#X connect 41 0 40 1;
#X connect 42 0 40 2;
#X connect 44 0 69 0;
#X connect 45 0 70 0;
#X connect 46 0 71 0;
#X connect 49 0 44 1;
#X connect 50 0 44 2;
#X connect 55 0 52 0;
#X connect 56 0 53 0;
#X connect 58 0 54 0;
#X connect 65 0 23 0;
#X connect 66 0 30 0;
#X connect 67 0 40 0;
#X connect 68 0 44 0;
#X connect 70 0 47 0;
#X connect 71 0 48 0;
#X connect 72 0 57 0;
#X connect 74 0 51 0;
#X connect 76 0 73 0;
#X connect 80 0 81 0;
#X connect 81 0 82 0;
#X connect 81 0 128 0;
#X connect 82 0 81 1;
#X connect 83 0 128 1;
#X connect 84 0 128 2;
#X connect 85 0 128 3;
#X connect 86 0 128 4;
#X connect 87 0 128 5;
#X connect 88 0 20 0;
#X connect 91 0 93 0;
#X connect 92 0 93 1;
#X connect 92 0 104 0;
#X connect 93 0 90 0;
#X connect 95 0 96 1;
#X connect 95 0 105 0;
#X connect 95 0 107 0;
#X connect 96 0 94 0;
#X connect 97 0 12 0;
#X connect 98 0 8 0;
#X connect 99 0 16 0;
#X connect 100 0 10 0;
#X connect 101 0 18 0;
#X connect 102 0 103 0;
#X connect 104 0 93 0;
#X connect 105 0 96 0;
#X connect 106 0 108 0;
#X connect 106 0 107 1;
#X connect 107 0 109 0;
#X connect 108 0 107 0;
#X connect 110 0 111 0;
#X connect 112 0 80 1;
#X connect 113 0 128 6;
#X connect 115 0 6 0;
#X connect 115 1 7 0;
#X connect 117 0 118 0;
#X connect 119 0 120 0;
#X connect 121 0 96 0;
#X connect 122 0 39 0;
#X connect 123 0 124 1;
#X connect 124 0 27 0;
#X connect 127 0 148 0;
#X connect 128 0 115 0;
#X connect 129 0 130 0;
#X connect 130 0 12 0;
#X connect 131 0 8 0;
#X connect 132 0 10 0;
#X connect 133 0 131 0;
#X connect 134 0 132 0;
#X connect 135 0 20 0;
#X connect 136 0 16 0;
#X connect 137 0 19 0;
#X connect 138 0 135 0;
#X connect 139 0 136 0;
#X connect 140 0 137 0;
#X connect 141 0 142 0;
#X connect 142 0 143 0;
#X connect 144 0 80 0;
#X connect 145 0 123 0;
#X connect 146 0 145 0;
#X connect 147 0 2 0;
#X connect 147 0 2 1;
#X connect 148 0 124 0;
