#N canvas 0 22 1920 1008 10;
#X obj 549 514 dac~;
#X obj 22 585 throw~ \$0-mix;
#X obj 483 452 catch~ \$0-mix;
#X obj 129 585 throw~ \$0-mix;
#X obj 22 550 grain \$0-tape;
#X obj 129 550 grain \$0-tape;
#X obj 22 -156 hsl 128 15 0 1 0 0 empty empty position 140 4 0 10 -262144
-1 -1 1270 1;
#X floatatom 22 -139 8 0 0 0 - - -, f 8;
#X obj 22 -79 hsl 128 15 0 1 0 0 empty empty spread 140 4 0 10 -262144
-1 -1 0 1;
#X floatatom 22 -62 8 0 0 0 - - -, f 8;
#X obj 22 -233 hsl 128 15 0 1 0 0 empty empty amplitude 140 4 0 10
-262144 -1 -1 12700 1;
#X floatatom 22 -216 8 0 0 0 - - -, f 8;
#X obj 483 -230 f 5000;
#X obj 483 -249 loadbang;
#X obj 228 -156 hsl 128 15 0 1 0 0 empty empty speed 140 4 0 10 -262144
-1 -1 6604 1;
#X floatatom 228 -139 8 0 0 0 - - -, f 8;
#X obj 228 -79 hsl 128 15 0 1 0 0 empty empty fade 140 4 0 10 -262144
-1 -1 6350 1;
#X floatatom 228 -62 8 0 0 0 - - -, f 8;
#X obj 228 -233 hsl 128 15 0 1 0 0 empty empty length 140 4 0 10 -262144
-1 -1 2540 1;
#X floatatom 228 -216 8 0 0 0 - - -, f 8;
#X obj 60 124 s \$0-pos-ms;
#X obj 60 105 *;
#X obj 483 -211 s \$0-max-pos-ms;
#X obj 483 -166 f 5000;
#X obj 483 -147 s \$0-max-spr-ms;
#X obj 499 393 delwrite~ \$0-tape 10000;
#X obj 100 82 r \$0-max-pos-ms;
#X text 22 -276 controls;
#X obj 60 175 *;
#X obj 100 152 r \$0-max-spr-ms;
#X obj 60 194 s \$0-spr-ms;
#X text 483 -273 define ranges for control values;
#X obj 483 -185 loadbang;
#X obj 595 -249 loadbang;
#X obj 595 -230 f 1;
#X obj 595 -211 s \$0-min-len-ms;
#X obj 691 -249 loadbang;
#X obj 691 -211 s \$0-max-len-ms;
#X obj 291 105 expr $f1*($f3-$f2)+$f2;
#X obj 289 82 r \$0-min-len-ms;
#X obj 385 82 r \$0-max-len-ms;
#X obj 291 124 s \$0-len-ms;
#X obj 289 175 expr $f1*($f3-$f2)+$f2;
#X obj 595 -185 loadbang;
#X obj 691 -185 loadbang;
#X obj 595 -147 s \$0-min-spd-ms;
#X obj 691 -147 s \$0-max-spd-ms;
#X obj 287 152 r \$0-min-spd-ms;
#X obj 383 152 r \$0-max-spd-ms;
#X floatatom 22 27 8 0 0 0 - - -, f 8;
#X floatatom 100 27 8 0 0 0 - - -, f 8;
#X floatatom 172 27 8 0 0 0 - - -, f 8;
#X floatatom 244 27 8 0 0 0 - - -, f 8;
#X obj 100 8 r \$0-pos-ms;
#X obj 172 8 r \$0-spr-ms;
#X floatatom 316 27 8 0 0 0 - - -, f 8;
#X obj 244 8 r \$0-len-ms;
#X obj 22 -198 s \$0-amp-ctl;
#X obj 22 -121 s \$0-pos-ctl;
#X obj 22 -44 s \$0-spr-ctl;
#X obj 228 -198 s \$0-len-ctl;
#X obj 228 -121 s \$0-spd-ctl;
#X obj 228 -44 s \$0-fade-ctl;
#X obj 22 82 r \$0-pos-ctl;
#X obj 22 152 r \$0-spr-ctl;
#X obj 211 82 r \$0-len-ctl;
#X obj 209 152 r \$0-spd-ctl;
#X obj 289 194 s \$0-spd;
#X obj 595 -166 f 0.1;
#X obj 691 -166 f 2;
#X obj 316 8 r \$0-spd;
#X floatatom 370 27 8 0 0 0 - - -, f 8;
#X obj 22 8 r \$0-amp-ctl;
#X text 22 -15 meters;
#X obj 370 8 r \$0-fade-ms;
#X text 241 558 grain msg: pos-ms spr-ms len-ms speed fade amp;
#X text 22 57 compute scaled control values;
#X obj 22 439 metro;
#X obj 22 462 f 0;
#X obj 66 462 expr ($f1+1)%2;
#X obj 29 485 r \$0-pos-ms;
#X obj 101 485 r \$0-spr-ms;
#X obj 173 485 r \$0-len-ms;
#X obj 245 485 r \$0-spd;
#X obj 299 485 r \$0-fade;
#X obj 228 -252 loadbang;
#X text 22 276 compute auxiliary values;
#X obj 37 364 s \$0-dur-ms;
#X obj 22 299 r \$0-len-ms;
#X obj 94 299 r \$0-spd;
#X obj 37 345 /, f 1;
#X obj 109 364 s \$0-fade-ms;
#X obj 208 299 r \$0-dur-ms;
#X obj 109 345 expr $f2*0.5*$f1;
#X obj 22 -252 loadbang;
#X obj 22 -175 loadbang;
#X obj 228 -175 loadbang;
#X obj 22 -98 loadbang;
#X obj 228 -98 loadbang;
#X obj 448 8 r \$0-dur-ms;
#X floatatom 448 27 8 0 0 0 - - -, f 8;
#X obj 42 322 bang;
#X obj 145 322 bang;
#X obj 280 299 r \$0-fade-ms;
#X obj 211 345 -;
#X obj 239 322 bang;
#X obj 211 364 s \$0-rep-dur-ms;
#X obj 520 8 r \$0-rep-dur-ms;
#X floatatom 520 27 8 0 0 0 - - -, f 8;
#X obj 76 416 r \$0-rep-dur-ms;
#X obj 359 485 r \$0-amp;
#X text 22 392 generate metronome to trigger grains;
#X obj 22 527 route 0 1;
#X text 160 462 cycle between the two grains;
#X obj 22 223 r \$0-amp-ctl;
#X obj 22 242 s \$0-amp;
#X obj 100 223 r \$0-fade-ctl;
#X obj 100 242 s \$0-fade;
#X obj 148 299 r \$0-fade;
#X obj 691 -230 f 1000;
#X obj 415 393 throw~ \$0-mix;
#X obj 445 479 s~ \$0-feedback;
#X obj 556 325 r~ \$0-feedback;
#X obj 22 508 pack f f f f f f f;
#X obj 22 416 loadbang;
#X obj 574 344 lop~ 10000;
#X obj 655 -49 s~ \$0-prs-1;
#X obj 727 -49 s~ \$0-prs-2;
#X obj 415 325 catch~ \$0-in-mix;
#X obj 682 -91 adc~ 3 4;
#X obj 655 -68 /~ 0.82;
#X obj 727 -68 /~ 0.82;
#X obj 513 -86 adc~ 1 2;
#X obj 550 -63 s~ \$0-mic;
#X obj 472 -63 s~ \$0-pickup;
#X text 483 -117 read audio inputs;
#X text 495 58 mix audio inputs;
#X obj 495 82 r~ \$0-mic;
#X obj 597 82 r~ \$0-pickup;
#X obj 495 145 throw~ \$0-in-mix;
#X obj 597 146 throw~ \$0-in-mix;
#X text 495 177 send inputs to scope;
#X obj 581 225 dac~ 27 28 29 30;
#X obj 495 202 r~ \$0-mic;
#X obj 555 202 r~ \$0-pickup;
#X obj 633 202 r~ \$0-prs-1;
#X obj 705 202 r~ \$0-prs-2;
#X text 415 263 feed input mix into delay line;
#X text 415 284 delay line length should be at least max-pos-ms + max-spr-ms
, f 38;
#X text 468 428 output;
#X text 652 -11 snapshot pressure inputs;
#X text 655 -117 read pressure inputs;
#X obj 706 29 r~ \$0-prs-1;
#X obj 706 71 s \$0-prs-1-ctl;
#X obj 796 29 r~ \$0-prs-2;
#X obj 796 71 s \$0-prs-2-ctl;
#X obj 796 52 snapshot~;
#X obj 706 52 snapshot~;
#X obj 652 29 metro 10;
#X obj 652 10 loadbang;
#X obj 373 -121 loadbang;
#X obj 373 -102 f 0.5;
#X obj 364 -208 r \$0-prs-2-ctl;
#X obj 495 126 *~ 1;
#X obj 122 -119 r \$0-prs-1-ctl;
#X obj 597 127 *~ 0.7;
#X obj 114 -275 loadbang;
#X obj 114 -256 f 1;
#X obj 574 363 expr~ $v1*0.6;
#X obj 365 -277 r \$0-prs-2-ctl;
#X obj 125 -208 r \$0-prs-1-ctl;
#X obj 122 -100 map 0 1 0 0.05;
#X obj 364 -189 map 0 1 0.52 0.4;
#X obj 365 -258 map 0 1 0.2 0.05;
#X obj 125 -189 map 0 1 0.1 0.05;
#X obj 547 479 *~ 0.7;
#X text 595 478 output gain;
#X connect 2 0 121 0;
#X connect 2 0 175 0;
#X connect 4 0 1 0;
#X connect 5 0 3 0;
#X connect 6 0 7 0;
#X connect 7 0 58 0;
#X connect 8 0 9 0;
#X connect 9 0 59 0;
#X connect 10 0 11 0;
#X connect 11 0 57 0;
#X connect 12 0 22 0;
#X connect 13 0 12 0;
#X connect 14 0 15 0;
#X connect 15 0 61 0;
#X connect 16 0 17 0;
#X connect 17 0 62 0;
#X connect 18 0 19 0;
#X connect 19 0 60 0;
#X connect 21 0 20 0;
#X connect 23 0 24 0;
#X connect 26 0 21 1;
#X connect 28 0 30 0;
#X connect 29 0 28 1;
#X connect 32 0 23 0;
#X connect 33 0 34 0;
#X connect 34 0 35 0;
#X connect 36 0 119 0;
#X connect 38 0 41 0;
#X connect 39 0 38 1;
#X connect 40 0 38 2;
#X connect 42 0 67 0;
#X connect 43 0 68 0;
#X connect 44 0 69 0;
#X connect 47 0 42 1;
#X connect 48 0 42 2;
#X connect 53 0 50 0;
#X connect 54 0 51 0;
#X connect 56 0 52 0;
#X connect 63 0 21 0;
#X connect 64 0 28 0;
#X connect 65 0 38 0;
#X connect 66 0 42 0;
#X connect 68 0 45 0;
#X connect 69 0 46 0;
#X connect 70 0 55 0;
#X connect 72 0 49 0;
#X connect 74 0 71 0;
#X connect 77 0 78 0;
#X connect 78 0 79 0;
#X connect 78 0 123 0;
#X connect 79 0 78 1;
#X connect 80 0 123 1;
#X connect 81 0 123 2;
#X connect 82 0 123 3;
#X connect 83 0 123 4;
#X connect 84 0 123 5;
#X connect 85 0 18 0;
#X connect 88 0 90 0;
#X connect 89 0 90 1;
#X connect 89 0 101 0;
#X connect 90 0 87 0;
#X connect 92 0 93 1;
#X connect 92 0 102 0;
#X connect 92 0 104 0;
#X connect 93 0 91 0;
#X connect 94 0 10 0;
#X connect 95 0 6 0;
#X connect 96 0 14 0;
#X connect 97 0 8 0;
#X connect 98 0 16 0;
#X connect 99 0 100 0;
#X connect 101 0 90 0;
#X connect 102 0 93 0;
#X connect 103 0 105 0;
#X connect 103 0 104 1;
#X connect 104 0 106 0;
#X connect 105 0 104 0;
#X connect 107 0 108 0;
#X connect 109 0 77 1;
#X connect 110 0 123 6;
#X connect 112 0 4 0;
#X connect 112 1 5 0;
#X connect 114 0 115 0;
#X connect 116 0 117 0;
#X connect 118 0 93 0;
#X connect 119 0 37 0;
#X connect 122 0 125 0;
#X connect 123 0 112 0;
#X connect 124 0 77 0;
#X connect 125 0 168 0;
#X connect 128 0 120 0;
#X connect 128 0 25 0;
#X connect 129 0 130 0;
#X connect 129 1 131 0;
#X connect 130 0 126 0;
#X connect 131 0 127 0;
#X connect 132 0 134 0;
#X connect 132 1 133 0;
#X connect 137 0 163 0;
#X connect 138 0 165 0;
#X connect 143 0 142 0;
#X connect 144 0 142 1;
#X connect 145 0 142 2;
#X connect 146 0 142 3;
#X connect 152 0 157 0;
#X connect 154 0 156 0;
#X connect 156 0 155 0;
#X connect 157 0 153 0;
#X connect 158 0 156 0;
#X connect 158 0 157 0;
#X connect 159 0 158 0;
#X connect 160 0 161 0;
#X connect 161 0 16 0;
#X connect 162 0 172 0;
#X connect 163 0 139 0;
#X connect 164 0 171 0;
#X connect 165 0 140 0;
#X connect 166 0 167 0;
#X connect 167 0 10 0;
#X connect 168 0 25 0;
#X connect 169 0 173 0;
#X connect 170 0 174 0;
#X connect 171 0 8 0;
#X connect 172 0 14 0;
#X connect 173 0 18 0;
#X connect 174 0 6 0;
#X connect 175 0 0 0;
#X connect 175 0 0 1;
