#N canvas 480 22 960 828 10;
#X obj 13 57 bng 15 250 50 0 empty empty empty 17 7 0 10 -262144 -1
-1;
#X obj 273 16 inlet;
#X obj 157 413 vline~;
#X obj 157 432 delread4~ \$1;
#X obj 157 375 pack f f f;
#X obj 82 289 s \$0-dur-ms;
#X obj 293 65 s \$0-len-ms;
#X obj 149 65 s \$0-pos-ms;
#X obj 365 65 s \$0-spd;
#X obj 419 65 s \$0-fade;
#X obj 479 65 s \$0-amp;
#X obj 13 16 r \$0-pos-ms;
#X obj 71 242 r \$0-len-ms;
#X obj 143 242 r \$0-spd;
#X obj 82 270 /, f 1;
#X obj 353 242 r \$0-fade;
#X obj 329 289 s \$0-fade-ms;
#X obj 413 242 r \$0-dur-ms;
#X obj 164 346 r \$0-end-ms;
#X text 80 324 play grain;
#X text 327 324 generate amp env;
#X obj 402 413 vline~;
#X obj 327 346 r \$0-amp;
#X obj 381 346 r \$0-fade-ms;
#X obj 261 506 outlet~;
#X obj 261 487 expr~ $v1*sqrt($v2);
#X text 278 465 apply amp env;
#X obj 446 289 s \$0-sus-ms;
#X obj 329 270 expr $f2*0.5*$f1;
#X obj 485 242 r \$0-fade-ms;
#X obj 446 270 -;
#X obj 459 346 r \$0-sus-ms;
#X msg 402 394 0 \, \$1 \$2 \, \$1 \$3 \$2 \, 0 \$2 \$4;
#X obj 563 242 r \$0-sus-ms;
#X obj 532 270 +;
#X obj 532 289 s \$0-fade-sus-ms;
#X obj 531 346 r \$0-fade-sus-ms;
#X obj 402 375 pack f f f f;
#X obj 273 35 unpack f f f f f f;
#X obj 221 65 s \$0-spr-ms;
#X text 208 101 apply spread;
#X obj 208 123 noise~;
#X obj 230 148 snapshot~;
#X obj 310 123 r \$0-spr-ms;
#X obj 382 123 r \$0-pos-ms;
#X obj 13 82 s \$0-bang;
#X obj 250 123 r \$0-bang;
#X obj 277 191 s \$0-start-ms;
#X obj 197 242 r \$0-start-ms;
#X obj 80 346 r \$0-start-ms;
#X text 71 220 compute auxiliary values;
#X msg 157 394 \$1 \, \$2 \$3;
#X obj 277 172 expr $f3+($f1*0.5+0.5)*$f2;
#X obj 281 242 r \$0-dur-ms;
#X obj 168 289 s \$0-end-ms;
#X obj 168 270 expr $f1+$f2*($f3-1);
#X obj 236 346 r \$0-dur-ms;
#X connect 0 0 45 0;
#X connect 1 0 38 0;
#X connect 2 0 3 0;
#X connect 3 0 25 0;
#X connect 4 0 51 0;
#X connect 11 0 0 0;
#X connect 12 0 14 0;
#X connect 12 0 55 1;
#X connect 13 0 14 1;
#X connect 13 0 55 2;
#X connect 14 0 5 0;
#X connect 15 0 28 0;
#X connect 17 0 28 1;
#X connect 17 0 30 0;
#X connect 18 0 4 1;
#X connect 21 0 25 1;
#X connect 22 0 37 0;
#X connect 23 0 37 1;
#X connect 25 0 24 0;
#X connect 28 0 16 0;
#X connect 29 0 30 1;
#X connect 29 0 34 0;
#X connect 30 0 27 0;
#X connect 31 0 37 2;
#X connect 32 0 21 0;
#X connect 33 0 34 1;
#X connect 34 0 35 0;
#X connect 36 0 37 3;
#X connect 37 0 32 0;
#X connect 38 0 7 0;
#X connect 38 1 39 0;
#X connect 38 2 6 0;
#X connect 38 3 8 0;
#X connect 38 4 9 0;
#X connect 38 5 10 0;
#X connect 41 0 42 0;
#X connect 42 0 52 0;
#X connect 43 0 52 1;
#X connect 44 0 52 2;
#X connect 46 0 42 0;
#X connect 48 0 55 0;
#X connect 49 0 4 0;
#X connect 51 0 2 0;
#X connect 52 0 47 0;
#X connect 55 0 54 0;
#X connect 56 0 4 2;
#X coords 0 -1 1 1 105 33 1 11 41;
