#N canvas 495 22 450 300 10;
#X obj 36 32 inlet;
#X obj 72 32 f \$1;
#X obj 102 32 f \$2;
#X obj 132 32 f \$3;
#X obj 162 32 f \$4;
#X obj 36 55 expr ($f1-$f2)/($f3-$f2)*($f5-$f4)+$f4;
#X obj 36 74 outlet;
#X obj 72 9 loadbang;
#X connect 0 0 5 0;
#X connect 1 0 5 1;
#X connect 2 0 5 2;
#X connect 3 0 5 3;
#X connect 4 0 5 4;
#X connect 5 0 6 0;
#X connect 7 0 1 0;
#X connect 7 0 2 0;
#X connect 7 0 3 0;
#X connect 7 0 4 0;
